<svg width="104" height="31" viewBox="0 0 104 31" fill="none" xmlns="http://www.w3.org/2000/svg">
<rect x="0.164551" y="0.592682" width="103.545" height="30.2239" rx="15.1119" fill="black"/>
<g opacity="0.75">
<rect x="76.0041" y="8.70835" width="13.9925" height="13.9925" rx="6.99626" fill="#121212"/>
<g filter="url(#filter0_f_907_2759)">
<path d="M81.4412 12.5863C79.0772 13.2792 78.2893 17.2638 81.4412 18.8229C80.6533 16.7441 80.6533 14.8384 81.4412 12.5863Z" fill="#50A99A"/>
</g>
<g filter="url(#filter1_f_907_2759)">
<path d="M80.9215 14.0255C79.7395 14.3986 79.3456 16.5441 80.9215 17.3837C80.5276 16.2643 80.5276 15.2382 80.9215 14.0255Z" fill="#50A99A"/>
</g>
<g opacity="0.4" filter="url(#filter2_f_907_2759)">
<path d="M81.4078 13.484C80.3948 13.6367 79.6547 16.4395 80.8781 17.1838C80.445 16.1843 80.6616 14.1854 81.4078 13.484Z" fill="#D0FFF7"/>
</g>
<g filter="url(#filter3_f_907_2759)">
<path d="M84.5595 12.5863C86.9235 13.2792 87.7114 17.2638 84.5595 18.8229C85.3475 16.7441 85.3475 14.8384 84.5595 12.5863Z" fill="#3E518C"/>
</g>
<g filter="url(#filter4_f_907_2759)">
<path d="M85.0792 14.0255C86.2612 14.3986 86.6551 16.5441 85.0792 17.3837C85.4732 16.2643 85.4732 15.2382 85.0792 14.0255Z" fill="#26408D"/>
</g>
<g opacity="0.5" filter="url(#filter5_f_907_2759)">
<path d="M84.5928 13.484C85.6058 13.6367 86.3459 16.4395 85.1225 17.1838C85.5556 16.1843 85.339 14.1854 84.5928 13.484Z" fill="#0D308C"/>
</g>
<rect x="76.0041" y="8.70835" width="13.9925" height="13.9925" rx="6.99626" stroke="#0E0E0E" stroke-width="0.559701"/>
</g>
<g opacity="0.4">
<rect width="20.1492" height="20.1492" rx="10.0746" transform="matrix(-1 0 0 1 25.3511 5.63)" fill="#141414"/>
<rect width="13.097" height="13.097" rx="6.5485" transform="matrix(-1 0 0 1 21.825 9.1561)" fill="black"/>
<g filter="url(#filter6_f_907_2759)">
<path d="M17.2413 11.7755C20.2199 12.6487 21.2127 17.6692 17.2413 19.6337C18.2341 17.0143 18.2341 14.6132 17.2413 11.7755Z" fill="#50A99A"/>
</g>
<g filter="url(#filter7_f_907_2759)">
<path d="M17.8964 13.589C19.3857 14.0591 19.882 16.7625 17.8964 17.8203C18.3928 16.4099 18.3928 15.117 17.8964 13.589Z" fill="#50A99A"/>
</g>
<g opacity="0.5" filter="url(#filter8_f_907_2759)">
<path d="M17.2834 12.9067C18.5598 13.0991 19.4923 16.6306 17.9508 17.5684C18.4965 16.309 18.2237 13.7904 17.2834 12.9067Z" fill="#D0FFF7"/>
</g>
<g filter="url(#filter9_f_907_2759)">
<path d="M13.3117 11.7755C10.3331 12.6487 9.3403 17.6692 13.3117 19.6337C12.3189 17.0143 12.3189 14.6132 13.3117 11.7755Z" fill="#3E518C"/>
</g>
<g filter="url(#filter10_f_907_2759)">
<path d="M12.6567 13.589C11.1674 14.0591 10.6711 16.7625 12.6567 17.8203C12.1603 16.4099 12.1603 15.117 12.6567 13.589Z" fill="#26408D"/>
</g>
<g opacity="0.5" filter="url(#filter11_f_907_2759)">
<path d="M13.2696 12.9067C11.9931 13.0991 11.0606 16.6306 12.6021 17.5684C12.0565 16.309 12.3293 13.7904 13.2696 12.9067Z" fill="#0D308C"/>
</g>
</g>
<defs>
<filter id="filter0_f_907_2759" x="77.8031" y="11.0271" width="5.19719" height="9.355" filterUnits="userSpaceOnUse" color-interpolation-filters="sRGB">
<feFlood flood-opacity="0" result="BackgroundImageFix"/>
<feBlend mode="normal" in="SourceGraphic" in2="BackgroundImageFix" result="shape"/>
<feGaussianBlur stdDeviation="0.779584" result="effect1_foregroundBlur_907_2759"/>
</filter>
<filter id="filter1_f_907_2759" x="78.3229" y="12.4663" width="4.15776" height="6.47655" filterUnits="userSpaceOnUse" color-interpolation-filters="sRGB">
<feFlood flood-opacity="0" result="BackgroundImageFix"/>
<feBlend mode="normal" in="SourceGraphic" in2="BackgroundImageFix" result="shape"/>
<feGaussianBlur stdDeviation="0.779584" result="effect1_foregroundBlur_907_2759"/>
</filter>
<filter id="filter2_f_907_2759" x="79.2014" y="12.4446" width="3.24588" height="5.7786" filterUnits="userSpaceOnUse" color-interpolation-filters="sRGB">
<feFlood flood-opacity="0" result="BackgroundImageFix"/>
<feBlend mode="normal" in="SourceGraphic" in2="BackgroundImageFix" result="shape"/>
<feGaussianBlur stdDeviation="0.519723" result="effect1_foregroundBlur_907_2759"/>
</filter>
<filter id="filter3_f_907_2759" x="83.0004" y="11.0271" width="5.19719" height="9.355" filterUnits="userSpaceOnUse" color-interpolation-filters="sRGB">
<feFlood flood-opacity="0" result="BackgroundImageFix"/>
<feBlend mode="normal" in="SourceGraphic" in2="BackgroundImageFix" result="shape"/>
<feGaussianBlur stdDeviation="0.779584" result="effect1_foregroundBlur_907_2759"/>
</filter>
<filter id="filter4_f_907_2759" x="83.5201" y="12.4663" width="4.15776" height="6.47655" filterUnits="userSpaceOnUse" color-interpolation-filters="sRGB">
<feFlood flood-opacity="0" result="BackgroundImageFix"/>
<feBlend mode="normal" in="SourceGraphic" in2="BackgroundImageFix" result="shape"/>
<feGaussianBlur stdDeviation="0.779584" result="effect1_foregroundBlur_907_2759"/>
</filter>
<filter id="filter5_f_907_2759" x="83.5533" y="12.4446" width="3.24588" height="5.7786" filterUnits="userSpaceOnUse" color-interpolation-filters="sRGB">
<feFlood flood-opacity="0" result="BackgroundImageFix"/>
<feBlend mode="normal" in="SourceGraphic" in2="BackgroundImageFix" result="shape"/>
<feGaussianBlur stdDeviation="0.519723" result="effect1_foregroundBlur_907_2759"/>
</filter>
<filter id="filter6_f_907_2759" x="15.2768" y="9.81099" width="6.54849" height="11.7873" filterUnits="userSpaceOnUse" color-interpolation-filters="sRGB">
<feFlood flood-opacity="0" result="BackgroundImageFix"/>
<feBlend mode="normal" in="SourceGraphic" in2="BackgroundImageFix" result="shape"/>
<feGaussianBlur stdDeviation="0.982276" result="effect1_foregroundBlur_907_2759"/>
</filter>
<filter id="filter7_f_907_2759" x="15.9318" y="11.6244" width="5.23879" height="8.16046" filterUnits="userSpaceOnUse" color-interpolation-filters="sRGB">
<feFlood flood-opacity="0" result="BackgroundImageFix"/>
<feBlend mode="normal" in="SourceGraphic" in2="BackgroundImageFix" result="shape"/>
<feGaussianBlur stdDeviation="0.982276" result="effect1_foregroundBlur_907_2759"/>
</filter>
<filter id="filter8_f_907_2759" x="16.6286" y="12.2519" width="2.78004" height="5.97132" filterUnits="userSpaceOnUse" color-interpolation-filters="sRGB">
<feFlood flood-opacity="0" result="BackgroundImageFix"/>
<feBlend mode="normal" in="SourceGraphic" in2="BackgroundImageFix" result="shape"/>
<feGaussianBlur stdDeviation="0.327425" result="effect1_foregroundBlur_907_2759"/>
</filter>
<filter id="filter9_f_907_2759" x="8.72771" y="9.81099" width="6.54849" height="11.7873" filterUnits="userSpaceOnUse" color-interpolation-filters="sRGB">
<feFlood flood-opacity="0" result="BackgroundImageFix"/>
<feBlend mode="normal" in="SourceGraphic" in2="BackgroundImageFix" result="shape"/>
<feGaussianBlur stdDeviation="0.982276" result="effect1_foregroundBlur_907_2759"/>
</filter>
<filter id="filter10_f_907_2759" x="9.38249" y="11.6244" width="5.23879" height="8.16046" filterUnits="userSpaceOnUse" color-interpolation-filters="sRGB">
<feFlood flood-opacity="0" result="BackgroundImageFix"/>
<feBlend mode="normal" in="SourceGraphic" in2="BackgroundImageFix" result="shape"/>
<feGaussianBlur stdDeviation="0.982276" result="effect1_foregroundBlur_907_2759"/>
</filter>
<filter id="filter11_f_907_2759" x="11.1443" y="12.2519" width="2.78004" height="5.97132" filterUnits="userSpaceOnUse" color-interpolation-filters="sRGB">
<feFlood flood-opacity="0" result="BackgroundImageFix"/>
<feBlend mode="normal" in="SourceGraphic" in2="BackgroundImageFix" result="shape"/>
<feGaussianBlur stdDeviation="0.327425" result="effect1_foregroundBlur_907_2759"/>
</filter>
</defs>
</svg>
