<svg width="157" height="181" viewBox="0 0 157 181" fill="none" xmlns="http://www.w3.org/2000/svg">
<g clip-path="url(#clip0_1013_261)">
<path d="M0.078125 10.9975C0.078125 4.79686 5.10472 -0.229736 11.3053 -0.229736V-0.229736C17.506 -0.229736 22.5326 4.79686 22.5326 10.9975V110.277H0.078125V10.9975Z" fill="#56B8EF"/>
<path d="M19.3201 10.9975C19.3201 4.79685 24.3467 -0.229736 30.5473 -0.229736V-0.229736C36.7479 -0.229736 41.7745 4.79686 41.7745 10.9975V138.462H19.3201V10.9975Z" fill="#56B8EF"/>
<path d="M38.5613 10.9975C38.5613 4.79685 43.5879 -0.229736 49.7885 -0.229736V-0.229736C55.9891 -0.229736 61.0157 4.79686 61.0157 10.9975V138.462H38.5613V10.9975Z" fill="#02A756"/>
<path d="M57.803 10.9975C57.803 4.79685 62.8296 -0.229736 69.0302 -0.229736V-0.229736C75.2308 -0.229736 80.2574 4.79686 80.2574 10.9975V138.462H57.803V10.9975Z" fill="#04A756"/>
<path d="M77.0454 10.9975C77.0454 4.79685 82.072 -0.229736 88.2726 -0.229736V-0.229736C94.4732 -0.229736 99.4998 4.79686 99.4998 10.9975V138.462H77.0454V10.9975Z" fill="#EBE73A"/>
<path d="M96.2881 10.9975C96.2881 4.79685 101.315 -0.229736 107.515 -0.229736V-0.229736C113.716 -0.229736 118.743 4.79686 118.743 10.9975V138.462H96.2881V10.9975Z" fill="#EBE73A"/>
<path d="M115.531 10.9975C115.531 4.79685 120.557 -0.229736 126.758 -0.229736V-0.229736C132.958 -0.229736 137.985 4.79686 137.985 10.9975V138.462H115.531V10.9975Z" fill="#F84649"/>
<path d="M134.772 10.9975C134.772 4.79686 139.799 -0.229736 145.999 -0.229736V-0.229736C152.2 -0.229736 157.227 4.79686 157.227 10.9975V110.277H134.772V10.9975Z" fill="#F74749"/>
<path d="M157.227 102.259C157.227 145.654 122.048 180.832 78.6524 180.832C35.257 180.832 0.078125 145.654 0.078125 102.259C0.078125 58.8647 35.257 23.6864 78.6524 23.6864C122.048 23.6864 157.227 58.8647 157.227 102.259Z" fill="black"/>
<path fill-rule="evenodd" clip-rule="evenodd" d="M78.6524 137.553C98.1459 137.553 113.947 121.751 113.947 102.259C113.947 82.7679 98.1459 66.9658 78.6524 66.9658C59.1589 66.9658 43.3575 82.7679 43.3575 102.259C43.3575 121.751 59.1589 137.553 78.6524 137.553ZM78.6524 180.832C122.048 180.832 157.227 145.654 157.227 102.259C157.227 58.8647 122.048 23.6864 78.6524 23.6864C35.257 23.6864 0.078125 58.8647 0.078125 102.259C0.078125 145.654 35.257 180.832 78.6524 180.832Z" fill="white"/>
<g opacity="0.1" filter="url(#filter0_f_1013_261)">
<circle cx="84.2437" cy="56.4007" r="43.7101" transform="rotate(60 84.2437 56.4007)" fill="#F4484A"/>
<circle cx="131.354" cy="61.5143" r="43.7101" transform="rotate(60 131.354 61.5143)" fill="#B68F3F"/>
<circle cx="90.6917" cy="112.235" r="43.7101" transform="rotate(60 90.6917 112.235)" fill="#59B7F3"/>
<circle cx="46.3899" cy="78.2555" r="43.7101" transform="rotate(60 46.3899 78.2555)" fill="#ECEB3A"/>
</g>
</g>
<defs>
<filter id="filter0_f_1013_261" x="-27.3276" y="-17.3168" width="232.399" height="203.269" filterUnits="userSpaceOnUse" color-interpolation-filters="sRGB">
<feFlood flood-opacity="0" result="BackgroundImageFix"/>
<feBlend mode="normal" in="SourceGraphic" in2="BackgroundImageFix" result="shape"/>
<feGaussianBlur stdDeviation="15" result="effect1_foregroundBlur_1013_261"/>
</filter>
<clipPath id="clip0_1013_261">
<rect width="157" height="181" fill="white"/>
</clipPath>
</defs>
</svg>
