<svg width="834" height="293" viewBox="0 0 834 293" fill="none" xmlns="http://www.w3.org/2000/svg">
    <path fill-rule="evenodd" clip-rule="evenodd" d="M662.492 126.036H832.875C835.579 150.917 833.28 174.04 825.978 195.405C818.947 216.5 808.399 234.079 794.336 248.143C780.272 261.936 763.91 272.753 745.249 280.596C726.589 288.439 706.981 292.361 686.427 292.361C643.967 292.361 608.268 278.298 579.33 250.171C550.662 222.044 536.329 187.427 536.329 146.319C536.329 105.211 550.662 70.5938 579.33 42.4672C608.268 14.3406 643.967 0.277344 686.427 0.277344C718.069 0.277344 745.655 8.25556 769.184 24.212C792.713 40.1684 809.751 59.6406 820.299 82.6287L756.203 106.969C749.982 94.2579 740.652 83.8457 728.211 75.7323C716.041 67.6188 702.113 63.5621 686.427 63.5621C664.25 63.5621 645.589 71.5403 630.444 87.4967C615.299 103.453 607.727 123.061 607.727 146.319C607.727 169.578 615.299 189.185 630.444 205.142C645.589 221.098 664.25 229.076 686.427 229.076C703.736 229.076 718.475 225.019 730.645 216.906C742.815 208.522 751.064 198.516 755.391 186.886H662.492V126.036ZM459.156 267.615V4.33398H528.12V288.304H394.654L337.454 25.0232V288.304H268.49V4.33398H401.956L459.156 267.615ZM0.85791 288.304H69.8221V176.744H183.41V288.304H252.374V4.33398H183.41V115.894H69.8221V4.33398H0.85791V288.304Z" fill="white"/>
    </svg>
    