<svg width="982" height="512" viewBox="0 0 982 512" fill="none" xmlns="http://www.w3.org/2000/svg">
    <g filter="url(#filter0_f_907_2825)">
    <ellipse cx="491.525" cy="479.427" rx="440.087" ry="4.08681" fill="black"/>
    </g>
    <path d="M96.7053 18.7924C96.7053 9.14949 104.522 1.33234 114.165 1.33234H871.567C881.21 1.33234 889.027 9.14946 889.027 18.7924V450.918C889.027 451.989 888.159 452.858 887.087 452.858H98.6453C97.5738 452.858 96.7053 451.989 96.7053 450.918V18.7924Z" fill="#1A202C" stroke="#4A5568" stroke-width="1.29334"/>
    <path d="M101.231 18.7924C101.231 10.9352 107.601 4.56573 115.458 4.56573H870.895C878.752 4.56573 885.121 10.9352 885.121 18.7924V436.133H101.231V18.7924Z" fill="black"/>
    <path d="M465.362 438.072H466.717L468.532 442.502H468.604L470.419 438.072H471.774V444.186H470.712V439.986H470.655L468.965 444.168H468.171L466.481 439.977H466.425V444.186H465.362V438.072ZM474.252 444.279C473.962 444.279 473.7 444.227 473.467 444.124C473.236 444.018 473.053 443.863 472.918 443.658C472.784 443.453 472.718 443.2 472.718 442.9C472.718 442.641 472.765 442.427 472.861 442.258C472.957 442.089 473.087 441.953 473.252 441.852C473.417 441.75 473.603 441.674 473.81 441.622C474.019 441.568 474.235 441.529 474.458 441.505C474.727 441.478 474.945 441.453 475.112 441.431C475.279 441.407 475.401 441.371 475.476 441.323C475.554 441.274 475.593 441.197 475.593 441.093V441.076C475.593 440.851 475.526 440.676 475.393 440.553C475.259 440.43 475.067 440.368 474.816 440.368C474.552 440.368 474.342 440.426 474.186 440.541C474.033 440.657 473.93 440.793 473.876 440.95L472.867 440.807C472.947 440.528 473.078 440.295 473.261 440.108C473.444 439.919 473.668 439.778 473.933 439.684C474.197 439.589 474.49 439.541 474.81 439.541C475.031 439.541 475.251 439.567 475.47 439.619C475.689 439.67 475.889 439.756 476.07 439.875C476.251 439.993 476.397 440.153 476.506 440.356C476.618 440.559 476.673 440.813 476.673 441.117V444.186H475.634V443.556H475.599C475.533 443.684 475.44 443.803 475.321 443.915C475.203 444.024 475.055 444.113 474.876 444.18C474.699 444.246 474.491 444.279 474.252 444.279ZM474.533 443.485C474.75 443.485 474.938 443.442 475.097 443.356C475.256 443.269 475.379 443.153 475.464 443.01C475.552 442.867 475.596 442.71 475.596 442.541V442.001C475.562 442.029 475.504 442.055 475.422 442.079C475.343 442.102 475.253 442.123 475.154 442.141C475.054 442.159 474.956 442.175 474.858 442.189C474.761 442.203 474.676 442.215 474.604 442.225C474.443 442.247 474.299 442.283 474.172 442.332C474.044 442.382 473.944 442.452 473.87 442.541C473.796 442.629 473.76 442.742 473.76 442.882C473.76 443.081 473.832 443.231 473.978 443.332C474.123 443.434 474.308 443.485 474.533 443.485ZM479.76 444.276C479.302 444.276 478.909 444.175 478.581 443.974C478.254 443.773 478.003 443.496 477.826 443.141C477.65 442.785 477.563 442.375 477.563 441.911C477.563 441.446 477.652 441.035 477.832 440.678C478.011 440.32 478.263 440.042 478.59 439.843C478.918 439.642 479.306 439.541 479.754 439.541C480.126 439.541 480.456 439.61 480.742 439.747C481.031 439.882 481.261 440.074 481.432 440.323C481.603 440.57 481.701 440.859 481.724 441.189H480.692C480.65 440.968 480.55 440.784 480.393 440.637C480.238 440.487 480.03 440.413 479.769 440.413C479.548 440.413 479.354 440.472 479.187 440.592C479.02 440.709 478.889 440.878 478.796 441.099C478.704 441.32 478.659 441.585 478.659 441.893C478.659 442.206 478.704 442.475 478.796 442.7C478.887 442.922 479.016 443.095 479.181 443.216C479.348 443.335 479.544 443.395 479.769 443.395C479.928 443.395 480.071 443.365 480.196 443.306C480.323 443.244 480.43 443.155 480.515 443.04C480.601 442.924 480.66 442.784 480.692 442.619H481.724C481.699 442.943 481.603 443.231 481.438 443.482C481.273 443.73 481.048 443.925 480.763 444.067C480.479 444.206 480.144 444.276 479.76 444.276ZM482.66 444.186V438.072H483.74V440.359H483.785C483.841 440.248 483.919 440.129 484.021 440.004C484.122 439.876 484.26 439.768 484.433 439.678C484.606 439.587 484.827 439.541 485.096 439.541C485.45 439.541 485.769 439.632 486.054 439.813C486.341 439.992 486.567 440.258 486.735 440.61C486.904 440.96 486.988 441.39 486.988 441.899C486.988 442.403 486.906 442.831 486.741 443.183C486.575 443.535 486.35 443.804 486.066 443.989C485.781 444.174 485.459 444.267 485.099 444.267C484.836 444.267 484.618 444.223 484.445 444.135C484.272 444.048 484.132 443.942 484.027 443.819C483.923 443.694 483.843 443.575 483.785 443.464H483.722V444.186H482.66ZM483.719 441.893C483.719 442.19 483.761 442.45 483.845 442.673C483.93 442.896 484.053 443.07 484.212 443.195C484.373 443.318 484.568 443.38 484.797 443.38C485.036 443.38 485.236 443.316 485.397 443.189C485.558 443.06 485.68 442.884 485.761 442.661C485.845 442.436 485.887 442.18 485.887 441.893C485.887 441.609 485.846 441.356 485.764 441.135C485.683 440.914 485.561 440.741 485.4 440.616C485.239 440.49 485.038 440.428 484.797 440.428C484.566 440.428 484.37 440.488 484.209 440.61C484.048 440.731 483.925 440.901 483.842 441.12C483.76 441.339 483.719 441.597 483.719 441.893ZM489.907 444.276C489.459 444.276 489.071 444.177 488.743 443.98C488.415 443.783 488.16 443.508 487.979 443.153C487.8 442.799 487.71 442.385 487.71 441.911C487.71 441.438 487.8 441.023 487.979 440.667C488.16 440.31 488.415 440.034 488.743 439.837C489.071 439.64 489.459 439.541 489.907 439.541C490.355 439.541 490.743 439.64 491.072 439.837C491.4 440.034 491.654 440.31 491.833 440.667C492.014 441.023 492.104 441.438 492.104 441.911C492.104 442.385 492.014 442.799 491.833 443.153C491.654 443.508 491.4 443.783 491.072 443.98C490.743 444.177 490.355 444.276 489.907 444.276ZM489.913 443.41C490.156 443.41 490.359 443.343 490.522 443.21C490.685 443.075 490.807 442.894 490.886 442.667C490.968 442.44 491.009 442.187 491.009 441.908C491.009 441.628 490.968 441.374 490.886 441.147C490.807 440.918 490.685 440.736 490.522 440.601C490.359 440.466 490.156 440.398 489.913 440.398C489.664 440.398 489.457 440.466 489.292 440.601C489.129 440.736 489.007 440.918 488.925 441.147C488.845 441.374 488.806 441.628 488.806 441.908C488.806 442.187 488.845 442.44 488.925 442.667C489.007 442.894 489.129 443.075 489.292 443.21C489.457 443.343 489.664 443.41 489.913 443.41ZM495.022 444.276C494.574 444.276 494.186 444.177 493.858 443.98C493.529 443.783 493.274 443.508 493.093 443.153C492.914 442.799 492.825 442.385 492.825 441.911C492.825 441.438 492.914 441.023 493.093 440.667C493.274 440.31 493.529 440.034 493.858 439.837C494.186 439.64 494.574 439.541 495.022 439.541C495.47 439.541 495.858 439.64 496.186 439.837C496.515 440.034 496.768 440.31 496.947 440.667C497.128 441.023 497.219 441.438 497.219 441.911C497.219 442.385 497.128 442.799 496.947 443.153C496.768 443.508 496.515 443.783 496.186 443.98C495.858 444.177 495.47 444.276 495.022 444.276ZM495.028 443.41C495.271 443.41 495.474 443.343 495.637 443.21C495.8 443.075 495.921 442.894 496.001 442.667C496.083 442.44 496.123 442.187 496.123 441.908C496.123 441.628 496.083 441.374 496.001 441.147C495.921 440.918 495.8 440.736 495.637 440.601C495.474 440.466 495.271 440.398 495.028 440.398C494.779 440.398 494.572 440.466 494.407 440.601C494.244 440.736 494.121 440.918 494.04 441.147C493.96 441.374 493.92 441.628 493.92 441.908C493.92 442.187 493.96 442.44 494.04 442.667C494.121 442.894 494.244 443.075 494.407 443.21C494.572 443.343 494.779 443.41 495.028 443.41ZM499.121 442.747L499.118 441.443H499.292L500.94 439.601H502.202L500.175 441.858H499.951L499.121 442.747ZM498.136 444.186V438.072H499.217V444.186H498.136ZM501.014 444.186L499.521 442.099L500.25 441.338L502.307 444.186H501.014ZM505.056 444.186V438.072H507.348C507.818 438.072 508.212 438.16 508.53 438.335C508.851 438.51 509.093 438.751 509.256 439.057C509.421 439.362 509.504 439.708 509.504 440.096C509.504 440.488 509.421 440.837 509.256 441.141C509.091 441.446 508.847 441.686 508.524 441.861C508.202 442.034 507.805 442.12 507.333 442.12H505.814V441.21H507.184C507.459 441.21 507.684 441.162 507.859 441.067C508.034 440.971 508.163 440.84 508.247 440.672C508.332 440.505 508.375 440.313 508.375 440.096C508.375 439.879 508.332 439.688 508.247 439.523C508.163 439.358 508.033 439.23 507.856 439.138C507.681 439.044 507.455 438.998 507.178 438.998H506.163V444.186H505.056ZM510.418 444.186V439.601H511.466V440.365H511.514C511.597 440.1 511.74 439.896 511.943 439.753C512.148 439.608 512.382 439.535 512.645 439.535C512.705 439.535 512.771 439.538 512.845 439.544C512.921 439.548 512.983 439.555 513.033 439.565V440.559C512.987 440.543 512.915 440.529 512.815 440.517C512.718 440.503 512.623 440.496 512.532 440.496C512.335 440.496 512.157 440.539 512 440.625C511.845 440.708 511.723 440.825 511.633 440.974C511.543 441.123 511.499 441.295 511.499 441.49V444.186H510.418ZM515.562 444.276C515.115 444.276 514.726 444.177 514.398 443.98C514.07 443.783 513.815 443.508 513.634 443.153C513.455 442.799 513.365 442.385 513.365 441.911C513.365 441.438 513.455 441.023 513.634 440.667C513.815 440.31 514.07 440.034 514.398 439.837C514.726 439.64 515.115 439.541 515.562 439.541C516.01 439.541 516.398 439.64 516.727 439.837C517.055 440.034 517.309 440.31 517.488 440.667C517.669 441.023 517.76 441.438 517.76 441.911C517.76 442.385 517.669 442.799 517.488 443.153C517.309 443.508 517.055 443.783 516.727 443.98C516.398 444.177 516.01 444.276 515.562 444.276ZM515.568 443.41C515.811 443.41 516.014 443.343 516.177 443.21C516.341 443.075 516.462 442.894 516.542 442.667C516.623 442.44 516.664 442.187 516.664 441.908C516.664 441.628 516.623 441.374 516.542 441.147C516.462 440.918 516.341 440.736 516.177 440.601C516.014 440.466 515.811 440.398 515.568 440.398C515.32 440.398 515.113 440.466 514.947 440.601C514.784 440.736 514.662 440.918 514.58 441.147C514.501 441.374 514.461 441.628 514.461 441.908C514.461 442.187 514.501 442.44 514.58 442.667C514.662 442.894 514.784 443.075 514.947 443.21C515.113 443.343 515.32 443.41 515.568 443.41Z" fill="#A0AEC0"/>
    <path d="M0.998047 451.413C0.998047 450.699 1.57709 450.12 2.29138 450.12H980.053C980.768 450.12 981.347 450.699 981.347 451.413V464.833H0.998047V451.413Z" fill="#A3ACB1"/>
    <path d="M0.998047 451.413C0.998047 450.699 1.57709 450.12 2.29138 450.12H980.053C980.768 450.12 981.347 450.699 981.347 451.413V464.833H0.998047V451.413Z" fill="url(#paint0_linear_907_2825)"/>
    <path d="M0.998047 464.993H981.347L944.939 471.164C930.658 473.584 916.198 474.801 901.713 474.801H77.4639C61.5331 474.801 45.6365 473.33 29.9765 470.405L0.998047 464.993Z" fill="#647279"/>
    <path d="M0.998047 464.993H981.347L944.939 471.164C930.658 473.584 916.198 474.801 901.713 474.801H77.4639C61.5331 474.801 45.6365 473.33 29.9765 470.405L0.998047 464.993Z" fill="url(#paint1_linear_907_2825)"/>
    <path fill-rule="evenodd" clip-rule="evenodd" d="M410.339 450.12C410.839 456.51 417.165 461.563 424.896 461.563H558.137C565.868 461.563 572.194 456.51 572.694 450.12H410.339Z" fill="#96A1A8"/>
    <path fill-rule="evenodd" clip-rule="evenodd" d="M410.339 450.12C410.839 456.51 417.165 461.563 424.896 461.563H558.137C565.868 461.563 572.194 456.51 572.694 450.12H410.339Z" fill="url(#paint2_linear_907_2825)"/>
    <defs>
    <filter id="filter0_f_907_2825" x="22.9846" y="446.886" width="937.081" height="65.0804" filterUnits="userSpaceOnUse" color-interpolation-filters="sRGB">
    <feFlood flood-opacity="0" result="BackgroundImageFix"/>
    <feBlend mode="normal" in="SourceGraphic" in2="BackgroundImageFix" result="shape"/>
    <feGaussianBlur stdDeviation="14.2267" result="effect1_foregroundBlur_907_2825"/>
    </filter>
    <linearGradient id="paint0_linear_907_2825" x1="0.998047" y1="457.476" x2="981.347" y2="457.476" gradientUnits="userSpaceOnUse">
    <stop stop-color="#0D1012"/>
    <stop offset="0.0295345" stop-color="#CAD4DB"/>
    <stop offset="0.0625" stop-color="#242729"/>
    <stop offset="0.133609" stop-color="#A3ACB1"/>
    <stop offset="0.865967" stop-color="#A3ACB1"/>
    <stop offset="0.941937" stop-color="#242729"/>
    <stop offset="0.971275" stop-color="#CAD4DB"/>
    <stop offset="0.996436" stop-color="#0D1012"/>
    </linearGradient>
    <linearGradient id="paint1_linear_907_2825" x1="491.172" y1="464.993" x2="491.172" y2="474.801" gradientUnits="userSpaceOnUse">
    <stop stop-color="#7A7F83"/>
    <stop offset="1" stop-color="#0B0B0E"/>
    </linearGradient>
    <linearGradient id="paint2_linear_907_2825" x1="426.355" y1="457.068" x2="559.596" y2="457.068" gradientUnits="userSpaceOnUse">
    <stop stop-color="#3C3C3C"/>
    <stop offset="0.317518" stop-color="#3C3C3C" stop-opacity="0"/>
    <stop offset="0.660584" stop-color="#3C3C3C" stop-opacity="0"/>
    <stop offset="1" stop-color="#444444"/>
    </linearGradient>
    </defs>
    </svg>
    