<svg width="459" height="538" viewBox="0 0 459 538" fill="none" xmlns="http://www.w3.org/2000/svg">
    <g opacity="0.1">
    <path fill-rule="evenodd" clip-rule="evenodd" d="M85.7568 125.287C107.032 125.287 124.278 108.04 124.278 86.7671C124.278 65.4939 107.032 48.2472 85.7568 48.2472C64.4814 48.2472 47.2356 65.4939 47.2356 86.7671C47.2356 108.04 64.4814 125.287 85.7568 125.287ZM85.7568 172.523C133.119 172.523 171.514 134.128 171.514 86.7671C171.514 39.4056 133.119 1.01161 85.7568 1.01161C38.3946 1.01161 0 39.4056 0 86.7671C0 134.128 38.3946 172.523 85.7568 172.523Z" fill="white"/>
    <path fill-rule="evenodd" clip-rule="evenodd" d="M225.108 46.3273V126.195H250.676V46.3273H225.108ZM206.033 0C190.982 0 178.781 12.2008 178.781 27.2513V145.271C178.781 160.322 190.982 172.523 206.033 172.523H269.752C284.802 172.523 297.003 160.322 297.003 145.271V27.2513C297.003 12.2008 284.802 0 269.752 0H206.033Z" fill="white"/>
    <path d="M415.121 5.847C434.527 -5.35661 458.784 8.6479 458.784 31.0551V142.85C458.784 165.257 434.527 179.262 415.121 168.058L318.302 112.161C298.897 100.957 298.897 72.9481 318.302 61.7445L415.121 5.847Z" fill="white"/>
    <path fill-rule="evenodd" clip-rule="evenodd" d="M85.7568 307.677C107.032 307.677 124.278 290.43 124.278 269.157C124.278 247.884 107.032 230.637 85.7568 230.637C64.4814 230.637 47.2356 247.884 47.2356 269.157C47.2356 290.43 64.4814 307.677 85.7568 307.677ZM85.7568 354.913C133.119 354.913 171.514 316.519 171.514 269.157C171.514 221.796 133.119 183.402 85.7568 183.402C38.3946 183.402 0 221.796 0 269.157C0 316.519 38.3946 354.913 85.7568 354.913Z" fill="white"/>
    <path fill-rule="evenodd" clip-rule="evenodd" d="M225.108 228.717V308.585H250.676V228.717H225.108ZM206.033 182.39C190.982 182.39 178.781 194.591 178.781 209.641V327.661C178.781 342.712 190.982 354.913 206.033 354.913H269.752C284.802 354.913 297.003 342.712 297.003 327.661V209.641C297.003 194.591 284.802 182.39 269.752 182.39H206.033Z" fill="white"/>
    <path d="M415.121 188.237C434.527 177.034 458.784 191.038 458.784 213.445V325.24C458.784 347.647 434.527 361.652 415.121 350.448L318.302 294.551C298.897 283.347 298.897 255.338 318.302 244.135L415.121 188.237Z" fill="white"/>
    <path fill-rule="evenodd" clip-rule="evenodd" d="M85.7568 490.066C107.032 490.066 124.278 472.82 124.278 451.547C124.278 430.273 107.032 413.027 85.7568 413.027C64.4814 413.027 47.2356 430.273 47.2356 451.547C47.2356 472.82 64.4814 490.066 85.7568 490.066ZM85.7568 537.302C133.119 537.302 171.514 498.908 171.514 451.547C171.514 404.185 133.119 365.791 85.7568 365.791C38.3946 365.791 0 404.185 0 451.547C0 498.908 38.3946 537.302 85.7568 537.302Z" fill="white"/>
    <path fill-rule="evenodd" clip-rule="evenodd" d="M225.108 411.107V490.975H250.676V411.107H225.108ZM206.033 364.78C190.982 364.78 178.781 376.98 178.781 392.031V510.051C178.781 525.101 190.982 537.302 206.033 537.302H269.752C284.802 537.302 297.003 525.101 297.003 510.051V392.031C297.003 376.98 284.802 364.78 269.752 364.78H206.033Z" fill="white"/>
    <path d="M415.121 370.627C434.527 359.423 458.784 373.427 458.784 395.835V507.63C458.784 530.037 434.527 544.041 415.121 532.838L318.302 476.94C298.897 465.737 298.897 437.728 318.302 426.524L415.121 370.627Z" fill="white"/>
    </g>
    </svg>
    