<svg width="72" height="78" viewBox="0 0 72 78" fill="none" xmlns="http://www.w3.org/2000/svg">
    <path d="M44.4104 5.7189L44.4178 5.7118L44.4249 5.70447C50.4244 -0.431331 60.1452 -0.431329 66.1447 5.70447C72.1521 11.8484 72.1521 21.8156 66.1447 27.9595L55.7886 38.551L55.3459 39.0037L55.7886 39.4564L66.029 49.9295C72.0364 56.0735 72.0364 66.0406 66.029 72.1845C60.0295 78.3203 50.3087 78.3203 44.3092 72.1845L44.3021 72.1773L44.2947 72.1702L22.1525 50.9067L22.1441 50.8987L22.1355 50.8909C21.874 50.6572 21.6182 50.4128 21.3688 50.1578L20.9058 50.6105L21.3688 50.1578C19.3757 48.1194 18.0439 45.6609 17.3732 43.0593L17.3725 43.0565C15.9911 37.7957 17.3207 31.9515 21.35 27.8305C21.6781 27.495 22.0172 27.1779 22.366 26.8793L22.38 26.8673L22.3933 26.8545L44.4104 5.7189Z" fill="white" stroke="white" stroke-width="1.29508"/>
    <path d="M16.716 1.61484C23.1239 1.61484 28.6263 5.63266 30.9297 11.3581L19.4327 22.248C18.9476 22.6585 18.4763 23.0937 18.0205 23.5537C12.3601 29.2657 10.5007 37.3571 12.4358 44.6303C13.377 48.232 15.2472 51.6385 18.0451 54.4619C18.3921 54.8121 18.7482 55.148 19.1124 55.4695L30.8898 66.6291C28.5632 72.3023 23.0871 76.2741 16.716 76.2741C8.24359 76.2741 1.35059 69.2456 1.35059 60.5447V17.3442C1.35059 8.64334 8.24359 1.61484 16.716 1.61484Z" fill="white" stroke="white" stroke-width="1.29508"/>
    </svg>
    