<svg width="254" height="297" viewBox="0 0 254 297" fill="none" xmlns="http://www.w3.org/2000/svg">
    <g opacity="0.05">
    <path d="M124.241 25.8697H123.741V26.3697V70.3789V70.8789H124.241H138.329H138.829V70.3789V26.3697V25.8697H138.329H124.241ZM47.4552 70.3783C59.4546 70.3783 69.1813 60.6512 69.1813 48.653C69.1813 36.6548 59.4546 26.9277 47.4552 26.9277C35.4558 26.9277 25.7291 36.6548 25.7291 48.653C25.7291 60.6512 35.4558 70.3783 47.4552 70.3783ZM94.2093 48.653C94.2093 74.4741 73.2768 95.4063 47.4552 95.4063C21.6337 95.4063 0.701172 74.4741 0.701172 48.653C0.701172 22.8319 21.6337 1.89971 47.4552 1.89971C73.2768 1.89971 94.2093 22.8319 94.2093 48.653ZM99.2139 15.8584C99.2139 7.84138 105.713 1.34229 113.73 1.34229H148.841C156.858 1.34229 163.357 7.84138 163.357 15.8584V80.8902C163.357 88.9072 156.858 95.4063 148.841 95.4063H113.73C105.713 95.4063 99.2139 88.9072 99.2139 80.8902V15.8584ZM229.193 4.49714C239.552 -1.48388 252.502 5.9924 252.502 17.9544V79.5561C252.502 91.5181 239.552 98.9944 229.193 93.0134L175.843 62.2125C165.484 56.2315 165.484 41.279 175.843 35.298L229.193 4.49714Z" stroke="black"/>
    <path d="M124.241 126.371H123.741V126.871V170.88V171.38H124.241H138.329H138.829V170.88V126.871V126.371H138.329H124.241ZM47.4552 170.88C59.4546 170.88 69.1813 161.152 69.1813 149.154C69.1813 137.156 59.4546 127.429 47.4552 127.429C35.4558 127.429 25.7291 137.156 25.7291 149.154C25.7291 161.152 35.4558 170.88 47.4552 170.88ZM94.2093 149.154C94.2093 174.975 73.2768 195.908 47.4552 195.908C21.6337 195.908 0.701172 174.975 0.701172 149.154C0.701172 123.333 21.6337 102.401 47.4552 102.401C73.2768 102.401 94.2093 123.333 94.2093 149.154ZM99.2139 116.36C99.2139 108.343 105.713 101.844 113.73 101.844H148.841C156.858 101.844 163.357 108.343 163.357 116.36V181.391C163.357 189.408 156.858 195.908 148.841 195.908H113.73C105.713 195.908 99.2139 189.408 99.2139 181.391V116.36ZM229.193 104.998C239.552 99.0173 252.502 106.494 252.502 118.456V180.057C252.502 192.019 239.552 199.496 229.193 193.515L175.843 162.714C165.484 156.733 165.484 141.78 175.843 135.799L229.193 104.998Z" stroke="black"/>
    <path d="M124.241 226.872H123.741V227.372V271.381V271.881H124.241H138.329H138.829V271.381V227.372V226.872H138.329H124.241ZM47.4552 271.381C59.4546 271.381 69.1813 261.653 69.1813 249.655C69.1813 237.657 59.4546 227.93 47.4552 227.93C35.4558 227.93 25.7291 237.657 25.7291 249.655C25.7291 261.653 35.4558 271.381 47.4552 271.381ZM94.2093 249.655C94.2093 275.476 73.2768 296.409 47.4552 296.409C21.6337 296.409 0.701172 275.476 0.701172 249.655C0.701172 223.834 21.6337 202.902 47.4552 202.902C73.2768 202.902 94.2093 223.834 94.2093 249.655ZM99.2139 216.861C99.2139 208.844 105.713 202.345 113.73 202.345H148.841C156.858 202.345 163.357 208.844 163.357 216.861V281.893C163.357 289.91 156.858 296.409 148.841 296.409H113.73C105.713 296.409 99.2139 289.91 99.2139 281.893V216.861ZM229.193 205.499C239.552 199.518 252.502 206.995 252.502 218.957V280.558C252.502 292.52 239.552 299.997 229.193 294.016L175.843 263.215C165.484 257.234 165.484 242.281 175.843 236.3L229.193 205.499Z" stroke="black"/>
    </g>
    </svg>
    