<svg width="24" height="58" viewBox="0 0 24 58" fill="none" xmlns="http://www.w3.org/2000/svg">
    <path fill-rule="evenodd" clip-rule="evenodd" d="M12.2553 56.3121L9.5451 57.5268C8.06868 50.2831 12.2414 44.7489 16.0169 39.7416C19.1153 35.6322 21.9461 31.8778 21.1673 27.8246C21.1621 27.7976 21.1568 27.7706 21.1513 27.7436L21.0473 27.2333L0.439511 32.8315C0.178767 32.1291 0.0679216 31.4184 0.0804132 30.6962L2.23297 30.1758C2.23816 30.2028 2.2435 30.2297 2.249 30.2567L2.35299 30.767L22.9608 25.1689C23.2215 25.8712 23.3324 26.5819 23.3199 27.3042C23.2689 30.2426 21.1746 33.3712 18.816 36.8949C18.5462 37.298 18.2712 37.7037 17.9941 38.1126C14.5312 43.222 10.7302 48.8301 12.2553 56.3121Z" fill="white"/>
    <path fill-rule="evenodd" clip-rule="evenodd" d="M11.1619 1.68073L13.8552 0.473633C15.3316 7.71737 11.1589 13.2515 7.38337 18.2588C4.28499 22.3681 1.4542 26.1226 2.23297 30.1758C2.23816 30.2028 2.2435 30.2297 2.249 30.2568L2.35299 30.767L22.9608 25.169C23.2215 25.8712 23.3324 26.582 23.3199 27.3042L21.1673 27.8246C21.1621 27.7976 21.1568 27.7706 21.1513 27.7436L21.0473 27.2333L0.439511 32.8315C0.178767 32.1292 0.0679216 31.4184 0.0804132 30.6962C0.131433 27.7578 2.22567 24.6293 4.58426 21.1056C4.85847 20.696 5.13796 20.2837 5.41977 19.8681C8.88132 14.763 12.685 9.15308 11.1619 1.68073Z" fill="white"/>
    </svg>
    